<svg width="51" height="42" viewBox="0 0 51 42" fill="none" xmlns="http://www.w3.org/2000/svg">
<path fill-rule="evenodd" clip-rule="evenodd" d="M25.8324 14.762C28.9211 12.9517 30.4398 10.6056 30.3394 6.97915C30.3256 4.65277 30.3197 2.32638 30.3197 0C22.6865 5.7086 15.0672 11.4349 7.45572 17.1691C7.44904 17.1754 7.44236 17.1816 7.43569 17.1878C5.84 18.4019 4.50355 19.8651 3.35058 21.4083C0.237919 25.5774 0.481876 32.0368 0.681814 37.3307C0.703304 37.8997 0.724286 38.4553 0.740536 38.993C0.81933 41.6563 3.96714 42.2472 5.9685 41.1835C7.21983 40.5182 8.51815 39.8064 9.79712 39.1053C10.7711 38.5714 11.7339 38.0437 12.6561 37.5472C15.9261 35.7842 14.3167 32.5497 12.0967 30.763C12.0967 30.763 12.0965 30.7629 12.096 30.7625C12.0962 30.762 12.0964 30.7615 12.0967 30.7611C9.06705 26.847 10.117 23.8784 14.3364 21.4516C18.1441 19.2611 22.0503 16.98 25.8324 14.762ZM6.97702 17.6364C7.09006 17.5209 7.20481 17.4075 7.32117 17.2962C7.20023 17.4092 7.08557 17.5227 6.97702 17.6364Z" fill="#5956E8"/>
<path fill-rule="evenodd" clip-rule="evenodd" d="M25.3777 26.9213C22.289 28.7316 20.7702 31.0777 20.8707 34.7042C20.8845 37.0306 20.8904 39.357 20.8904 41.6833C28.5235 35.9747 36.1429 30.2484 43.7543 24.5142C43.7609 24.508 43.7675 24.5019 43.7741 24.4957C45.3699 23.2816 46.7065 21.8184 47.8595 20.2751C50.9722 16.1059 50.7282 9.64654 50.5283 4.35268C50.5068 3.78367 50.4858 3.22812 50.4696 2.69033C50.3908 0.0270996 47.2429 -0.563855 45.2416 0.499862C43.9902 1.16526 42.6918 1.87702 41.4127 2.57817C40.4388 3.11204 39.4762 3.63976 38.554 4.13619C35.284 5.8992 36.8934 9.13368 39.1134 10.9203C39.1134 10.9203 39.1136 10.9205 39.1141 10.9208C39.1138 10.9213 39.1136 10.9218 39.1134 10.9223C42.143 14.8364 41.0931 17.8049 36.8737 20.2318C33.066 22.4222 29.1598 24.7033 25.3777 26.9213ZM44.2348 24.0451C44.1205 24.1619 44.0045 24.2766 43.8869 24.3891C44.0092 24.2748 44.1251 24.1601 44.2348 24.0451Z" fill="#5956E8"/>
</svg>
